<svg width="107" height="101" viewBox="0 0 107 101" fill="none" xmlns="http://www.w3.org/2000/svg">
<g clip-path="url(#clip0_1_349)">
<path d="M12.1042 6.08476C12.1042 9.44553 9.39091 12.1695 6.04331 12.1695C2.71332 12.1518 0 9.42785 0 6.08476C0 2.72399 2.71332 0 6.06093 0C9.39091 0 12.1042 2.72399 12.1042 6.08476Z" fill="#26306B"/>
<path d="M43.7479 6.08476C43.7479 9.44553 41.0346 12.1695 37.687 12.1695C34.3394 12.1695 31.626 9.44553 31.626 6.08476C31.626 2.72399 34.3394 0 37.687 0C41.0346 0 43.7479 2.72399 43.7479 6.08476Z" fill="#26306B"/>
<path d="M75.3739 6.08476C75.3739 9.44553 72.6606 12.1695 69.313 12.1695C65.9654 12.1695 63.2521 9.44553 63.2521 6.08476C63.2521 2.72399 65.9654 0 69.313 0C72.6606 0 75.3739 2.72399 75.3739 6.08476Z" fill="#26306B"/>
<path d="M107 6.08476C107 9.44553 104.286 12.1695 100.939 12.1695C97.5912 12.1695 94.8779 9.44553 94.8779 6.08476C94.8955 2.72399 97.6088 0 100.956 0C104.286 0 107 2.72399 107 6.08476Z" fill="#26306B"/>
<path d="M12.1042 35.6949C12.1042 39.0557 9.39089 41.7797 6.04329 41.7797C2.69568 41.7797 -0.0176392 39.0557 -0.0176392 35.6949C-0.0176392 32.3342 2.69568 29.6102 6.04329 29.6102C9.39089 29.6102 12.1042 32.3342 12.1042 35.6949Z" fill="#26306B"/>
<path d="M43.7479 35.6949C43.7479 39.0557 41.0346 41.7797 37.687 41.7797C34.3394 41.7797 31.626 39.0557 31.626 35.6949C31.626 32.3342 34.3394 29.6102 37.687 29.6102C41.0346 29.6102 43.7479 32.3342 43.7479 35.6949Z" fill="#26306B"/>
<path d="M75.3739 35.6949C75.3739 39.0557 72.6606 41.7797 69.313 41.7797C65.9654 41.7797 63.2521 39.0557 63.2521 35.6949C63.2521 32.3342 65.9654 29.6102 69.313 29.6102C72.6606 29.6102 75.3739 32.3342 75.3739 35.6949Z" fill="#26306B"/>
<path d="M107 35.6949C107 39.0556 104.286 41.7796 100.939 41.7796C97.5912 41.7796 94.8779 39.0556 94.8779 35.6949C94.8779 32.3341 97.5912 29.6101 100.939 29.6101C104.286 29.6101 107 32.3341 107 35.6949Z" fill="#26306B"/>
<path d="M12.1042 65.3051C12.1042 68.6659 9.39089 71.3899 6.04329 71.3899C2.69568 71.3899 -0.0176392 68.6659 -0.0176392 65.3051C-0.0176392 61.9443 2.69568 59.2203 6.04329 59.2203C9.39089 59.2203 12.1042 61.9443 12.1042 65.3051Z" fill="#26306B"/>
<path d="M43.7479 65.3051C43.7479 68.6659 41.0346 71.3899 37.687 71.3899C34.3394 71.3899 31.626 68.6659 31.626 65.3051C31.626 61.9443 34.3394 59.2203 37.687 59.2203C41.0346 59.2203 43.7479 61.9443 43.7479 65.3051Z" fill="#26306B"/>
<path d="M75.3739 65.3051C75.3739 68.6659 72.6606 71.3899 69.313 71.3899C65.9654 71.3899 63.2521 68.6659 63.2521 65.3051C63.2521 61.9443 65.9654 59.2203 69.313 59.2203C72.6606 59.2203 75.3739 61.9443 75.3739 65.3051Z" fill="#26306B"/>
<path d="M107 65.305C107 68.6657 104.286 71.3897 100.939 71.3897C97.5912 71.3897 94.8779 68.6657 94.8779 65.305C94.8779 61.9442 97.5912 59.2202 100.939 59.2202C104.286 59.2202 107 61.9442 107 65.305Z" fill="#26306B"/>
<path d="M12.1042 94.9152C12.1042 98.276 9.39091 101 6.04331 101C2.71332 101 0 98.276 0 94.9152C0 91.5545 2.71332 88.8305 6.06093 88.8305C9.39091 88.8482 12.1042 91.5545 12.1042 94.9152Z" fill="#26306B"/>
<path d="M43.7479 94.9152C43.7479 98.276 41.0346 101 37.687 101C34.3394 101 31.626 98.276 31.626 94.9152C31.626 91.5545 34.3394 88.8305 37.687 88.8305C41.0346 88.8482 43.7479 91.5545 43.7479 94.9152Z" fill="#26306B"/>
<path d="M75.3739 94.9152C75.3739 98.276 72.6606 101 69.313 101C65.9654 101 63.2521 98.276 63.2521 94.9152C63.2521 91.5545 65.9654 88.8305 69.313 88.8305C72.6606 88.8482 75.3739 91.5545 75.3739 94.9152Z" fill="#26306B"/>
<path d="M107 94.9153C107 98.2761 104.286 101 100.939 101C97.5912 101 94.8779 98.2761 94.8779 94.9153C94.8779 91.5546 97.5912 88.8306 100.939 88.8306C104.286 88.8483 107 91.5546 107 94.9153Z" fill="#26306B"/>
</g>
<defs>
<clipPath id="clip0_1_349">
<rect width="107" height="101" fill="white"/>
</clipPath>
</defs>
</svg>
