<svg width="24" height="18" viewBox="0 0 24 18" fill="none" xmlns="http://www.w3.org/2000/svg">
<path fill-rule="evenodd" clip-rule="evenodd" d="M14.8027 17.3286C13.5919 14.9877 12.9864 12.4449 12.9864 9.70033C12.9864 6.91539 13.723 4.6148 15.1962 2.79854C16.6694 0.982283 18.9599 0.0741539 22.0677 0.0741539L22.0677 3.8883C20.978 3.8883 20.1808 4.13047 19.6763 4.6148C19.1718 5.09914 18.9195 6.02744 18.9195 7.39973V8.00515H23.3391V17.3286H14.8027ZM2.27047 17.3286C1.05963 14.9877 0.454206 12.4449 0.454206 9.70033C0.454206 6.91539 1.1908 4.6148 2.66399 2.79854C4.13718 0.982283 6.42768 0.0741539 9.53551 0.0741539V3.8883C8.44575 3.8883 7.64861 4.13047 7.14409 4.6148C6.63958 5.09914 6.38732 6.02744 6.38732 7.39973V8.00515H10.8069L10.8069 17.3286L2.27047 17.3286Z" fill="white"/>
</svg>
